<mxfile host="65bd71144e">
    <diagram id="vdyU_gSuTI28W83DqkJg" name="Page-1">
        <mxGraphModel dx="909" dy="694" grid="1" gridSize="10" guides="1" tooltips="1" connect="1" arrows="1" fold="1" page="1" pageScale="1" pageWidth="1169" pageHeight="827" background="#ffffff" math="0" shadow="0">
            <root>
                <mxCell id="0"/>
                <mxCell id="1" parent="0"/>
                <mxCell id="6" value="" style="edgeStyle=none;html=1;fontColor=#000000;" parent="1" source="2" target="5" edge="1">
                    <mxGeometry relative="1" as="geometry"/>
                </mxCell>
                <mxCell id="2" value="" style="ellipse;fillColor=strokeColor;fontColor=#000000;" parent="1" vertex="1">
                    <mxGeometry x="520" y="20" width="30" height="30" as="geometry"/>
                </mxCell>
                <mxCell id="8" value="" style="edgeStyle=none;html=1;fontColor=#000000;" parent="1" source="5" target="7" edge="1">
                    <mxGeometry relative="1" as="geometry"/>
                </mxCell>
                <mxCell id="5" value="Baggrundsmusik starter" style="html=1;align=center;verticalAlign=top;rounded=1;absoluteArcSize=1;arcSize=10;dashed=0;fontColor=#000000;" parent="1" vertex="1">
                    <mxGeometry x="465" y="80" width="140" height="40" as="geometry"/>
                </mxCell>
                <mxCell id="7" value="" style="html=1;points=[];perimeter=orthogonalPerimeter;fillColor=strokeColor;rotation=90;fontColor=#000000;" parent="1" vertex="1">
                    <mxGeometry x="572.82" y="-120.31" width="5" height="540.63" as="geometry"/>
                </mxCell>
                <mxCell id="46" value="" style="edgeStyle=none;html=1;fontSize=10;fontColor=#000000;entryX=0;entryY=0;entryDx=74.75;entryDy=30;entryPerimeter=0;" parent="1" source="9" edge="1">
                    <mxGeometry relative="1" as="geometry">
                        <mxPoint x="404.5" y="235" as="targetPoint"/>
                    </mxGeometry>
                </mxCell>
                <mxCell id="9" value="DÃ¥rlige ting falder ned" style="html=1;align=center;verticalAlign=top;rounded=1;absoluteArcSize=1;arcSize=10;dashed=0;strokeColor=#660000;fontColor=#000000;" parent="1" vertex="1">
                    <mxGeometry x="344" y="180" width="121" height="30" as="geometry"/>
                </mxCell>
                <mxCell id="57" value="" style="edgeStyle=orthogonalEdgeStyle;html=1;fontSize=10;fontColor=#000000;entryX=0;entryY=0;entryDx=74.75;entryDy=30.000000000000004;entryPerimeter=0;" parent="1" source="10" target="103" edge="1">
                    <mxGeometry relative="1" as="geometry">
                        <mxPoint x="750" y="235" as="targetPoint"/>
                    </mxGeometry>
                </mxCell>
                <mxCell id="10" value="Gode ting falder ned" style="html=1;align=center;verticalAlign=top;rounded=1;absoluteArcSize=1;arcSize=10;dashed=0;strokeColor=#00331A;fontColor=#000000;" parent="1" vertex="1">
                    <mxGeometry x="739.75" y="180" width="120" height="30" as="geometry"/>
                </mxCell>
                <mxCell id="87" style="edgeStyle=orthogonalEdgeStyle;html=1;fontSize=10;fontColor=#000000;entryX=0.5;entryY=0;entryDx=0;entryDy=0;" parent="1" source="20" target="22" edge="1">
                    <mxGeometry relative="1" as="geometry">
                        <mxPoint x="1025" y="640" as="targetPoint"/>
                        <Array as="points">
                            <mxPoint x="1040" y="596"/>
                            <mxPoint x="1040" y="650"/>
                        </Array>
                    </mxGeometry>
                </mxCell>
                <mxCell id="20" value="Game over" style="html=1;align=center;verticalAlign=top;rounded=1;absoluteArcSize=1;arcSize=10;dashed=0;strokeColor=#660000;fontColor=#000000;" parent="1" vertex="1">
                    <mxGeometry x="920" y="581.25" width="70" height="30" as="geometry"/>
                </mxCell>
                <mxCell id="88" style="edgeStyle=orthogonalEdgeStyle;html=1;entryX=0.5;entryY=0;entryDx=0;entryDy=0;fontSize=10;fontColor=#000000;" parent="1" source="21" target="22" edge="1">
                    <mxGeometry relative="1" as="geometry"/>
                </mxCell>
                <mxCell id="21" value="Level Complete" style="html=1;align=center;verticalAlign=top;rounded=1;absoluteArcSize=1;arcSize=10;dashed=0;strokeColor=#00331A;fontColor=#000000;" parent="1" vertex="1">
                    <mxGeometry x="1069" y="581.25" width="91" height="30" as="geometry"/>
                </mxCell>
                <mxCell id="22" value="" style="ellipse;html=1;shape=endState;labelBackgroundColor=none;fontSize=12;fillColor=#000000;" parent="1" vertex="1">
                    <mxGeometry x="1025" y="650" width="30" height="30" as="geometry"/>
                </mxCell>
                <mxCell id="81" style="edgeStyle=orthogonalEdgeStyle;html=1;fontSize=10;fontColor=#000000;" parent="1" source="24" edge="1">
                    <mxGeometry relative="1" as="geometry">
                        <mxPoint x="960" y="580" as="targetPoint"/>
                    </mxGeometry>
                </mxCell>
                <mxCell id="82" style="edgeStyle=orthogonalEdgeStyle;html=1;fontSize=10;fontColor=#000000;entryX=0.5;entryY=0;entryDx=0;entryDy=0;" parent="1" source="24" edge="1" target="21">
                    <mxGeometry relative="1" as="geometry">
                        <mxPoint x="1120" y="580" as="targetPoint"/>
                    </mxGeometry>
                </mxCell>
                <mxCell id="24" value="" style="rhombus;labelBackgroundColor=none;fontSize=12;" parent="1" vertex="1">
                    <mxGeometry x="1000" y="500" width="30" height="30" as="geometry"/>
                </mxCell>
                <mxCell id="85" style="edgeStyle=orthogonalEdgeStyle;html=1;fontSize=10;fontColor=#000000;" parent="1" source="25" target="24" edge="1">
                    <mxGeometry relative="1" as="geometry"/>
                </mxCell>
                <mxCell id="25" value="" style="shape=collate;whiteSpace=wrap;html=1;labelBackgroundColor=none;fontSize=12;fillStyle=auto;" parent="1" vertex="1">
                    <mxGeometry x="995" y="265" width="40" height="40" as="geometry"/>
                </mxCell>
                <mxCell id="115" value="" style="edgeStyle=none;html=1;fontSize=12;" edge="1" parent="1" source="31" target="110">
                    <mxGeometry relative="1" as="geometry"/>
                </mxCell>
                <mxCell id="31" value="- Spil en lyd&lt;br&gt;- Start animation" style="html=1;align=center;verticalAlign=top;rounded=1;absoluteArcSize=1;arcSize=10;dashed=0;fontColor=#000000;" parent="1" vertex="1">
                    <mxGeometry x="430" y="290" width="105" height="40" as="geometry"/>
                </mxCell>
                <mxCell id="59" value="" style="edgeStyle=orthogonalEdgeStyle;html=1;fontSize=10;fontColor=#000000;" parent="1" source="41" target="42" edge="1">
                    <mxGeometry relative="1" as="geometry"/>
                </mxCell>
                <mxCell id="41" value="- Spil en lyd&lt;br&gt;- Start animation" style="html=1;align=center;verticalAlign=top;rounded=1;absoluteArcSize=1;arcSize=10;dashed=0;fontColor=#000000;" parent="1" vertex="1">
                    <mxGeometry x="747.25" y="290" width="105" height="40" as="geometry"/>
                </mxCell>
                <mxCell id="66" value="" style="edgeStyle=orthogonalEdgeStyle;html=1;fontSize=10;fontColor=#000000;" parent="1" source="42" target="65" edge="1">
                    <mxGeometry relative="1" as="geometry"/>
                </mxCell>
                <mxCell id="42" value="Mister 1 liv" style="html=1;align=center;verticalAlign=top;rounded=1;absoluteArcSize=1;arcSize=10;dashed=0;fontColor=#000000;" parent="1" vertex="1">
                    <mxGeometry x="757.25" y="350" width="85" height="30" as="geometry"/>
                </mxCell>
                <mxCell id="64" value="" style="edgeStyle=none;html=1;fontSize=10;fontColor=#000000;entryX=0.5;entryY=0;entryDx=0;entryDy=0;" parent="1" edge="1" target="10" source="7">
                    <mxGeometry relative="1" as="geometry">
                        <mxPoint x="749.8" y="151.39499999999998" as="sourcePoint"/>
                        <mxPoint x="749.6900000000003" y="180" as="targetPoint"/>
                    </mxGeometry>
                </mxCell>
                <mxCell id="78" style="edgeStyle=orthogonalEdgeStyle;html=1;entryX=0.258;entryY=0.07;entryDx=0;entryDy=0;entryPerimeter=0;fontSize=10;fontColor=#000000;" parent="1" source="65" target="70" edge="1">
                    <mxGeometry relative="1" as="geometry"/>
                </mxCell>
                <mxCell id="79" style="edgeStyle=orthogonalEdgeStyle;html=1;fontSize=10;fontColor=#000000;" parent="1" source="65" edge="1">
                    <mxGeometry relative="1" as="geometry">
                        <mxPoint x="940" y="580" as="targetPoint"/>
                        <Array as="points">
                            <mxPoint x="910" y="463"/>
                            <mxPoint x="910" y="520"/>
                            <mxPoint x="940" y="520"/>
                        </Array>
                    </mxGeometry>
                </mxCell>
                <mxCell id="65" value="" style="rhombus;labelBackgroundColor=none;fontSize=12;" parent="1" vertex="1">
                    <mxGeometry x="777.5" y="440" width="42.5" height="46" as="geometry"/>
                </mxCell>
                <mxCell id="67" value="[Ingen liv tilbage]" style="text;strokeColor=none;align=center;fillColor=none;html=1;verticalAlign=middle;whiteSpace=wrap;rounded=0;labelBackgroundColor=none;fontSize=10;fontColor=#000000;" parent="1" vertex="1">
                    <mxGeometry x="820" y="440" width="80" height="15" as="geometry"/>
                </mxCell>
                <mxCell id="89" style="edgeStyle=orthogonalEdgeStyle;html=1;fontSize=10;fontColor=#000000;" parent="1" source="70" target="7" edge="1">
                    <mxGeometry relative="1" as="geometry">
                        <mxPoint x="100" y="148" as="targetPoint"/>
                        <Array as="points">
                            <mxPoint x="220" y="521"/>
                            <mxPoint x="220" y="148"/>
                        </Array>
                    </mxGeometry>
                </mxCell>
                <mxCell id="70" value="" style="html=1;points=[];perimeter=orthogonalPerimeter;fillColor=strokeColor;rotation=90;fontColor=#000000;" parent="1" vertex="1">
                    <mxGeometry x="563.13" y="250.63" width="5" height="541.25" as="geometry"/>
                </mxCell>
                <mxCell id="71" value="" style="edgeStyle=none;html=1;fontSize=10;fontColor=#000000;exitX=0.77;exitY=0.817;exitDx=0;exitDy=0;exitPerimeter=0;entryX=0.5;entryY=0;entryDx=0;entryDy=0;" parent="1" edge="1" target="9" source="7">
                    <mxGeometry relative="1" as="geometry">
                        <mxPoint x="300.4899999999999" y="151.39499999999998" as="sourcePoint"/>
                        <mxPoint x="300.3800000000002" y="180" as="targetPoint"/>
                    </mxGeometry>
                </mxCell>
                <mxCell id="83" value="" style="edgeStyle=none;html=1;fontSize=10;fontColor=#000000;entryX=0.5;entryY=0;entryDx=0;entryDy=0;exitX=0.787;exitY=0.003;exitDx=0;exitDy=0;exitPerimeter=0;" parent="1" target="25" edge="1" source="7">
                    <mxGeometry relative="1" as="geometry">
                        <mxPoint x="870" y="151" as="sourcePoint"/>
                        <mxPoint x="960.0000000000005" y="180" as="targetPoint"/>
                        <Array as="points">
                            <mxPoint x="960" y="150"/>
                            <mxPoint x="1015" y="150"/>
                            <mxPoint x="1015" y="190"/>
                        </Array>
                    </mxGeometry>
                </mxCell>
                <mxCell id="84" value="[Der gÃ¥r 20 sekunder]" style="text;strokeColor=none;align=center;fillColor=none;html=1;verticalAlign=middle;whiteSpace=wrap;rounded=0;labelBackgroundColor=none;fontSize=10;fontColor=#000000;" parent="1" vertex="1">
                    <mxGeometry x="1021" y="220" width="100" height="15" as="geometry"/>
                </mxCell>
                <mxCell id="86" value="[Mere end 10 point]" style="text;strokeColor=none;align=center;fillColor=none;html=1;verticalAlign=middle;whiteSpace=wrap;rounded=0;labelBackgroundColor=none;fontSize=10;fontColor=#000000;" parent="1" vertex="1">
                    <mxGeometry x="1030" y="500" width="91" height="15" as="geometry"/>
                </mxCell>
                <mxCell id="90" value="[Spillet er stadig igang]" style="text;strokeColor=none;align=center;fillColor=none;html=1;verticalAlign=middle;whiteSpace=wrap;rounded=0;labelBackgroundColor=none;fontSize=10;fontColor=#000000;" parent="1" vertex="1">
                    <mxGeometry x="176.76" y="425" width="104.5" height="15" as="geometry"/>
                </mxCell>
                <mxCell id="96" value="" style="edgeStyle=none;html=1;fontColor=#000000;exitX=0.5;exitY=1;exitDx=0;exitDy=0;entryX=0.049;entryY=0.933;entryDx=0;entryDy=0;entryPerimeter=0;" parent="1" source="101" target="70" edge="1">
                    <mxGeometry relative="1" as="geometry">
                        <mxPoint x="187.5" y="460" as="sourcePoint"/>
                        <mxPoint x="339" y="520" as="targetPoint"/>
                        <Array as="points"/>
                    </mxGeometry>
                </mxCell>
                <mxCell id="101" value="FÃ¥ 1 point" style="html=1;align=center;verticalAlign=top;rounded=1;absoluteArcSize=1;arcSize=10;dashed=0;fontStyle=0;fontColor=#000000;" vertex="1" parent="1">
                    <mxGeometry x="294.88" y="360" width="77.75" height="30" as="geometry"/>
                </mxCell>
                <mxCell id="105" value="" style="edgeStyle=none;html=1;fontSize=12;" edge="1" parent="1" source="103" target="41">
                    <mxGeometry relative="1" as="geometry"/>
                </mxCell>
                <mxCell id="103" value="&lt;font style=&quot;font-size: 12px;&quot;&gt;klikker pÃ¥ god ting&lt;/font&gt;" style="html=1;shape=mxgraph.infographic.ribbonSimple;notch1=20;notch2=0;align=center;verticalAlign=middle;fontSize=14;fontStyle=0;flipH=1;fillColor=#FFFFFF;direction=west;" vertex="1" parent="1">
                    <mxGeometry x="725" y="235" width="149.5" height="30" as="geometry"/>
                </mxCell>
                <mxCell id="111" style="edgeStyle=none;html=1;entryX=0.5;entryY=0;entryDx=0;entryDy=0;fontSize=12;" edge="1" parent="1" source="108" target="31">
                    <mxGeometry relative="1" as="geometry">
                        <Array as="points">
                            <mxPoint x="483" y="251"/>
                        </Array>
                    </mxGeometry>
                </mxCell>
                <mxCell id="112" style="edgeStyle=none;html=1;entryX=0.445;entryY=0;entryDx=0;entryDy=0;entryPerimeter=0;fontSize=12;" edge="1" parent="1" source="108" target="109">
                    <mxGeometry relative="1" as="geometry">
                        <Array as="points">
                            <mxPoint x="328" y="250"/>
                        </Array>
                    </mxGeometry>
                </mxCell>
                <mxCell id="108" value="" style="rhombus;labelBackgroundColor=none;fontSize=12;" vertex="1" parent="1">
                    <mxGeometry x="389.26" y="234.5" width="30.49" height="33" as="geometry"/>
                </mxCell>
                <mxCell id="114" value="" style="edgeStyle=none;html=1;fontSize=12;" edge="1" parent="1" source="109" target="101">
                    <mxGeometry relative="1" as="geometry"/>
                </mxCell>
                <mxCell id="109" value="- Spil en lyd&lt;br&gt;- Start animation" style="html=1;align=center;verticalAlign=top;rounded=1;absoluteArcSize=1;arcSize=10;dashed=0;fontColor=#000000;" vertex="1" parent="1">
                    <mxGeometry x="281.26" y="290" width="105" height="40" as="geometry"/>
                </mxCell>
                <mxCell id="121" value="" style="edgeStyle=none;html=1;fontSize=12;" edge="1" parent="1" source="110" target="120">
                    <mxGeometry relative="1" as="geometry"/>
                </mxCell>
                <mxCell id="110" value="Mist 1 liv" style="html=1;align=center;verticalAlign=top;rounded=1;absoluteArcSize=1;arcSize=10;dashed=0;fontStyle=0;fontColor=#000000;" vertex="1" parent="1">
                    <mxGeometry x="442.25" y="360" width="77.75" height="30" as="geometry"/>
                </mxCell>
                <mxCell id="117" value="[dÃ¥rlig element rammer bunden]" style="text;html=1;align=center;verticalAlign=middle;resizable=0;points=[];autosize=1;strokeColor=none;fillColor=none;fontSize=12;" vertex="1" parent="1">
                    <mxGeometry x="415" y="220.63" width="190" height="30" as="geometry"/>
                </mxCell>
                <mxCell id="118" value="[klikker pÃ¥ dÃ¥rlig element]" style="text;html=1;align=center;verticalAlign=middle;resizable=0;points=[];autosize=1;strokeColor=none;fillColor=none;fontSize=12;" vertex="1" parent="1">
                    <mxGeometry x="240" y="220.63" width="160" height="30" as="geometry"/>
                </mxCell>
                <mxCell id="122" value="" style="edgeStyle=none;html=1;fontSize=12;" edge="1" parent="1" source="120" target="70">
                    <mxGeometry relative="1" as="geometry"/>
                </mxCell>
                <mxCell id="123" style="edgeStyle=none;html=1;entryX=0;entryY=0.5;entryDx=0;entryDy=0;fontSize=12;exitX=1;exitY=0.5;exitDx=0;exitDy=0;" edge="1" parent="1" source="120" target="20">
                    <mxGeometry relative="1" as="geometry">
                        <Array as="points">
                            <mxPoint x="700" y="443"/>
                            <mxPoint x="700" y="510"/>
                            <mxPoint x="830" y="510"/>
                            <mxPoint x="890" y="510"/>
                            <mxPoint x="890" y="596"/>
                        </Array>
                    </mxGeometry>
                </mxCell>
                <mxCell id="120" value="" style="rhombus;labelBackgroundColor=none;fontSize=12;" vertex="1" parent="1">
                    <mxGeometry x="460" y="420.32" width="42.5" height="46" as="geometry"/>
                </mxCell>
                <mxCell id="124" value="[Ingen liv tilbage]" style="text;strokeColor=none;align=center;fillColor=none;html=1;verticalAlign=middle;whiteSpace=wrap;rounded=0;labelBackgroundColor=none;fontSize=10;fontColor=#000000;" vertex="1" parent="1">
                    <mxGeometry x="510" y="425" width="80" height="15" as="geometry"/>
                </mxCell>
                <mxCell id="125" value="[Stadig liv tilbage]" style="text;strokeColor=none;align=center;fillColor=none;html=1;verticalAlign=middle;whiteSpace=wrap;rounded=0;labelBackgroundColor=none;fontSize=10;fontColor=#000000;" vertex="1" parent="1">
                    <mxGeometry x="475.64" y="486" width="97.18" height="15" as="geometry"/>
                </mxCell>
                <mxCell id="127" value="[Stadig liv tilbage]" style="text;strokeColor=none;align=center;fillColor=none;html=1;verticalAlign=middle;whiteSpace=wrap;rounded=0;labelBackgroundColor=none;fontSize=10;fontColor=#000000;" vertex="1" parent="1">
                    <mxGeometry x="710" y="485" width="97.18" height="15" as="geometry"/>
                </mxCell>
            </root>
        </mxGraphModel>
    </diagram>
</mxfile>